<?xml version="1.0" encoding="utf-8"?>
<!-- Generator: Adobe Illustrator 22.1.0, SVG Export Plug-In . SVG Version: 6.00 Build 0)  -->
<svg version="1.1" id="Layer_1" xmlns="http://www.w3.org/2000/svg" xmlns:xlink="http://www.w3.org/1999/xlink" x="0px" y="0px"
	 viewBox="0 0 72 72" style="enable-background:new 0 0 72 72;" xml:space="preserve">
<style type="text/css">
	.st0{fill:#AAAAAA;}
	.st1{fill:#FFFFFF;}
	.st2{fill:none;}
	.st3{font-family:'ProximaNova-Light';}
	.st4{font-size:12px;}
	.st5{font-family:'ProximaNova-Extrabld';}
</style>
<rect x="0" class="st0" width="72" height="72"/>
<g>
	<path class="st1" d="M17.4,3.8h6.1c5.9,0,9.6,4.3,9.6,9.5c0,5.3-3.7,9.5-9.6,9.5h-6.1V3.8z M23.5,21.2c5,0,7.9-3.6,7.9-8
		c0-4.4-2.8-8-7.9-8H19v16H23.5z"/>
	<path class="st1" d="M46,3.5c3.1,0,5.4,1.2,7.1,3.2l-1.2,0.9C50.6,6,48.4,4.9,46,4.9c-4.5,0-7.9,3.4-7.9,8.3c0,4.9,3.4,8.4,7.9,8.4
		c2.5,0,4.5-1.3,5.6-2.3v-4.5h-7.2v-1.4h8.8v6.6c-1.7,1.9-4.2,3.2-7.2,3.2c-5.3,0-9.6-4-9.6-9.8S40.7,3.5,46,3.5z"/>
	<path class="st1" d="M16.6,26.5h5v11.1c0,2.2,1.2,3.9,3.8,3.9c2.6,0,3.8-1.6,3.8-3.9V26.5h5v11.3c0,4.7-2.7,8-8.8,8
		c-6.1,0-8.8-3.4-8.8-8V26.5z"/>
	<path class="st1" d="M45.5,39.1l-4.1,6.4h-5.8l6.6-9.7L36,26.5h5.8l3.7,5.9l3.7-5.9H55l-6.2,9.2l6.6,9.7h-5.8L45.5,39.1z"/>
	<path class="st1" d="M22.1,49.3h5v11.1c0,2.2,1.2,3.9,3.8,3.9c2.6,0,3.8-1.6,3.8-3.9V49.3h5v11.3c0,4.7-2.7,8-8.8,8
		c-6.1,0-8.8-3.4-8.8-8V49.3z"/>
	<path class="st1" d="M43.1,49.3H48v19h-4.9V49.3z"/>
</g>
<rect x="-29" y="20.4" class="st2" width="36" height="33.6"/>
<text transform="matrix(1 0 0 1 -19.418 28.3789)"><tspan x="0" y="0" class="st3 st4">DG</tspan><tspan x="-0.1" y="9.6" class="st5 st4">UX</tspan><tspan x="2.2" y="19.2" class="st5 st4">UI</tspan></text>
</svg>
